<svg width="52" height="52" viewBox="0 0 52 52" fill="none" xmlns="http://www.w3.org/2000/svg">
<path d="M26 0.166748C11.74 0.166748 0.166656 11.7401 0.166656 26.0001C0.166656 40.2601 11.74 51.8334 26 51.8334C40.26 51.8334 51.8333 40.2601 51.8333 26.0001C51.8333 11.7401 40.26 0.166748 26 0.166748ZM15.6667 40.2084C13.9538 40.2084 12.3111 39.528 11.0999 38.3168C9.88875 37.1056 9.20832 35.4629 9.20832 33.7501C9.20832 32.0372 9.88875 30.3945 11.0999 29.1834C12.3111 27.9722 13.9538 27.2917 15.6667 27.2917C17.3795 27.2917 19.0222 27.9722 20.2334 29.1834C21.4446 30.3945 22.125 32.0372 22.125 33.7501C22.125 35.4629 21.4446 37.1056 20.2334 38.3168C19.0222 39.528 17.3795 40.2084 15.6667 40.2084ZM19.5417 15.6667C19.5417 13.9539 20.2221 12.3112 21.4333 11.1C22.6444 9.88884 24.2871 9.20842 26 9.20842C27.7128 9.20842 29.3556 9.88884 30.5667 11.1C31.7779 12.3112 32.4583 13.9539 32.4583 15.6667C32.4583 17.3796 31.7779 19.0223 30.5667 20.2335C29.3556 21.4447 27.7128 22.1251 26 22.1251C24.2871 22.1251 22.6444 21.4447 21.4333 20.2335C20.2221 19.0223 19.5417 17.3796 19.5417 15.6667V15.6667ZM36.3333 40.2084C34.6205 40.2084 32.9778 39.528 31.7666 38.3168C30.5554 37.1056 29.875 35.4629 29.875 33.7501C29.875 32.0372 30.5554 30.3945 31.7666 29.1834C32.9778 27.9722 34.6205 27.2917 36.3333 27.2917C38.0462 27.2917 39.6889 27.9722 40.9001 29.1834C42.1112 30.3945 42.7917 32.0372 42.7917 33.7501C42.7917 35.4629 42.1112 37.1056 40.9001 38.3168C39.6889 39.528 38.0462 40.2084 36.3333 40.2084Z" fill="#437FF6"/>
</svg>
