<svg width="48" height="56" viewBox="0 0 48 56" fill="none" xmlns="http://www.w3.org/2000/svg">
<path d="M35.625 49.9584C28.5466 53.8373 22.7083 53.8334 14.9583 51.2501C7.11015 48.6332 2.04166 39.6251 2.04166 33.1668C2.04166 29.6224 7.35557 27.5196 9.18328 26.9022C9.35949 26.8438 9.51296 26.7317 9.62209 26.5815C9.73123 26.4314 9.79053 26.2508 9.79165 26.0652V16.3751C9.79165 15.7814 9.90859 15.1935 10.1358 14.645C10.363 14.0965 10.696 13.5982 11.1158 13.1784C11.5356 12.7586 12.0339 12.4256 12.5824 12.1984C13.1309 11.9712 13.7188 11.8543 14.3125 11.8543C14.9062 11.8543 15.494 11.9712 16.0425 12.1984C16.591 12.4256 17.0894 12.7586 17.5092 13.1784C17.929 13.5982 18.262 14.0965 18.4892 14.645C18.7164 15.1935 18.8333 15.7814 18.8333 16.3751V13.1459C18.8333 11.9469 19.3096 10.797 20.1574 9.94921C21.0053 9.10138 22.1552 8.62508 23.3541 8.62508C24.5531 8.62508 25.703 9.10138 26.5509 9.94921C27.3987 10.797 27.875 11.9469 27.875 13.1459V16.3751C27.875 15.1761 28.3513 14.0262 29.1991 13.1784C30.0469 12.3306 31.1968 11.8543 32.3958 11.8543C33.5948 11.8543 34.7447 12.3306 35.5925 13.1784C36.4403 14.0262 36.9166 15.1761 36.9166 16.3751V6.68758C36.9166 5.48858 37.3929 4.33869 38.2408 3.49087C39.0886 2.64305 40.2385 2.16675 41.4375 2.16675C42.6365 2.16675 43.7864 2.64305 44.6342 3.49087C45.482 4.33869 45.9583 5.48858 45.9583 6.68758V33.4664C45.9583 36.6594 45.1936 39.8318 43.3259 42.4228C41.4271 45.0566 38.6694 48.2896 35.625 49.9584Z" stroke="#437FF6" stroke-width="4" stroke-linecap="round" stroke-linejoin="round"/>
</svg>
