<svg width="32" height="33" viewBox="0 0 32 33" fill="none" xmlns="http://www.w3.org/2000/svg">
<path d="M9.19999 27.4709C11.2 28.6709 13.6 29.3376 16 29.3376C23.3333 29.3376 29.3333 23.3376 29.3333 16.0042C29.3333 8.6709 23.3333 2.6709 16 2.6709C8.66666 2.6709 2.66666 8.6709 2.66666 16.0042C2.66666 18.4042 3.33332 20.6709 4.39999 22.6709L3.1071 27.6436C2.91238 28.3925 3.60558 29.0693 4.34964 28.8567L9.19999 27.4709Z" stroke="white" stroke-width="1.5" stroke-miterlimit="10" stroke-linecap="round" stroke-linejoin="round"/>
<path d="M22 19.8024C22 20.0184 21.9519 20.2404 21.8498 20.4564C21.7476 20.6724 21.6154 20.8764 21.4412 21.0684C21.1467 21.3924 20.8222 21.6264 20.4557 21.7764C20.0951 21.9264 19.7046 22.0044 19.2839 22.0044C18.671 22.0044 18.016 21.8604 17.325 21.5664C16.634 21.2724 15.9429 20.8764 15.2579 20.3784C14.5669 19.8744 13.9119 19.3164 13.2869 18.6984C12.668 18.0744 12.1092 17.4204 11.6104 16.7364C11.1177 16.0524 10.7211 15.3684 10.4326 14.6904C10.1442 14.0064 10 13.3524 10 12.7284C10 12.3204 10.0721 11.9304 10.2163 11.5704C10.3605 11.2044 10.5889 10.8684 10.9074 10.5684C11.2919 10.1904 11.7126 10.0044 12.1572 10.0044C12.3255 10.0044 12.4937 10.0404 12.644 10.1124C12.8002 10.1844 12.9384 10.2924 13.0466 10.4484L14.4407 12.4104C14.5488 12.5604 14.6269 12.6984 14.681 12.8304C14.7351 12.9564 14.7651 13.0824 14.7651 13.1964C14.7651 13.3404 14.7231 13.4844 14.639 13.6224C14.5608 13.7604 14.4467 13.9044 14.3025 14.0484L13.8458 14.5224C13.7797 14.5884 13.7496 14.6664 13.7496 14.7624C13.7496 14.8104 13.7556 14.8524 13.7677 14.9004C13.7857 14.9484 13.8037 14.9844 13.8157 15.0204C13.9239 15.2184 14.1102 15.4764 14.3746 15.7884C14.645 16.1004 14.9334 16.4184 15.2459 16.7364C15.5704 17.0544 15.8828 17.3484 16.2013 17.6184C16.5138 17.8824 16.7722 18.0624 16.9765 18.1704C17.0065 18.1824 17.0426 18.2004 17.0846 18.2184C17.1327 18.2364 17.1808 18.2424 17.2349 18.2424C17.337 18.2424 17.4151 18.2064 17.4812 18.1404L17.9379 17.6904C18.0881 17.5404 18.2323 17.4264 18.3706 17.3544C18.5088 17.2704 18.647 17.2284 18.7972 17.2284C18.9114 17.2284 19.0315 17.2524 19.1637 17.3064C19.2959 17.3604 19.4342 17.4384 19.5844 17.5404L21.5734 18.9504C21.7296 19.0584 21.8378 19.1844 21.9039 19.3344C21.9639 19.4844 22 19.6344 22 19.8024Z" stroke="white" stroke-width="1.5" stroke-miterlimit="10"/>
</svg>
