<svg width="230" height="62" viewBox="0 0 230 62" fill="none" xmlns="http://www.w3.org/2000/svg">
<g filter="url(#filter0_di_1_175)">
<circle cx="199" cy="27" r="12" fill="url(#paint0_linear_1_175)"/>
</g>
<path d="M2.61 43.0044V22.2984H18.995V43.0044H14.616V25.9524H6.989V43.0044H2.61ZM30.3954 26.8804C31.8647 26.8804 33.1214 27.1607 34.1654 27.7214C35.2287 28.2821 36.0504 29.0941 36.6304 30.1574C37.2104 31.2207 37.5004 32.5257 37.5004 34.0724V36.1604H27.2924C27.3311 37.3784 27.6887 38.3354 28.3654 39.0314C29.0614 39.7274 30.0184 40.0754 31.2364 40.0754C32.2611 40.0754 33.1891 39.9787 34.0204 39.7854C34.8517 39.5727 35.7121 39.2537 36.6014 38.8284V42.1634C35.8281 42.5501 35.0064 42.8304 34.1364 43.0044C33.2857 43.1977 32.2514 43.2944 31.0334 43.2944C29.4481 43.2944 28.0464 43.0044 26.8284 42.4244C25.6104 41.8251 24.6534 40.9261 23.9574 39.7274C23.2614 38.5287 22.9134 37.0207 22.9134 35.2034C22.9134 33.3474 23.2227 31.8104 23.8414 30.5924C24.4794 29.3551 25.3591 28.4271 26.4804 27.8084C27.6017 27.1897 28.9067 26.8804 30.3954 26.8804ZM30.4244 29.9544C29.5931 29.9544 28.8971 30.2251 28.3364 30.7664C27.7951 31.3077 27.4761 32.1487 27.3794 33.2894H33.4404C33.4404 32.6514 33.3244 32.0811 33.0924 31.5784C32.8797 31.0757 32.5511 30.6794 32.1064 30.3894C31.6617 30.0994 31.1011 29.9544 30.4244 29.9544ZM49.8202 26.8804C51.5989 26.8804 53.0392 27.5764 54.1412 28.9684C55.2432 30.3411 55.7942 32.3711 55.7942 35.0584C55.7942 36.8564 55.5332 38.3741 55.0112 39.6114C54.4892 40.8294 53.7739 41.7477 52.8652 42.3664C51.9565 42.9851 50.9029 43.2944 49.7042 43.2944C48.9502 43.2944 48.2929 43.1977 47.7322 43.0044C47.1909 42.8111 46.7269 42.5597 46.3402 42.2504C45.9535 41.9411 45.6152 41.6124 45.3252 41.2644H45.0932C45.1705 41.6317 45.2285 42.0184 45.2672 42.4244C45.3059 42.8111 45.3252 43.1977 45.3252 43.5844V49.9644H41.0042V27.1704H44.5132L45.1222 29.2294H45.3252C45.6152 28.8041 45.9632 28.4174 46.3692 28.0694C46.7752 27.7021 47.2585 27.4121 47.8192 27.1994C48.3992 26.9867 49.0662 26.8804 49.8202 26.8804ZM48.4282 30.3314C47.6742 30.3314 47.0749 30.4861 46.6302 30.7954C46.1855 31.1047 45.8569 31.5784 45.6442 32.2164C45.4509 32.8351 45.3445 33.6181 45.3252 34.5654V35.0294C45.3252 36.0541 45.4219 36.9241 45.6152 37.6394C45.8085 38.3354 46.1372 38.8671 46.6012 39.2344C47.0652 39.6017 47.6935 39.7854 48.4862 39.7854C49.1435 39.7854 49.6849 39.6017 50.1102 39.2344C50.5355 38.8671 50.8545 38.3257 51.0672 37.6104C51.2799 36.8951 51.3862 36.0251 51.3862 35.0004C51.3862 33.4537 51.1445 32.2937 50.6612 31.5204C50.1972 30.7277 49.4529 30.3314 48.4282 30.3314ZM65.7938 43.2944C64.2278 43.2944 62.8938 43.0141 61.7918 42.4534C60.6898 41.8734 59.8488 40.9841 59.2688 39.7854C58.6888 38.5867 58.3988 37.0497 58.3988 35.1744C58.3988 33.2411 58.7274 31.6654 59.3848 30.4474C60.0421 29.2294 60.9508 28.3304 62.1108 27.7504C63.2901 27.1704 64.6434 26.8804 66.1708 26.8804C67.2534 26.8804 68.1911 26.9867 68.9838 27.1994C69.7958 27.4121 70.5014 27.6634 71.1008 27.9534L69.8248 31.2884C69.1481 31.0177 68.5101 30.7954 67.9108 30.6214C67.3308 30.4474 66.7508 30.3604 66.1708 30.3604C65.4168 30.3604 64.7884 30.5441 64.2858 30.9114C63.7831 31.2594 63.4061 31.7911 63.1548 32.5064C62.9228 33.2024 62.8068 34.0821 62.8068 35.1454C62.8068 36.1894 62.9324 37.0594 63.1838 37.7554C63.4544 38.4321 63.8411 38.9444 64.3438 39.2924C64.8464 39.6211 65.4554 39.7854 66.1708 39.7854C67.0794 39.7854 67.8818 39.6694 68.5778 39.4374C69.2738 39.1861 69.9504 38.8477 70.6078 38.4224V42.1054C69.9504 42.5307 69.2544 42.8304 68.5198 43.0044C67.8044 43.1977 66.8958 43.2944 65.7938 43.2944ZM88.6362 27.1704V43.0044H84.3152V30.4184H78.5732V43.0044H74.2522V27.1704H88.6362ZM99.6952 26.8804C101.165 26.8804 102.421 27.1607 103.465 27.7214C104.529 28.2821 105.35 29.0941 105.93 30.1574C106.51 31.2207 106.8 32.5257 106.8 34.0724V36.1604H96.5922C96.6309 37.3784 96.9885 38.3354 97.6652 39.0314C98.3612 39.7274 99.3182 40.0754 100.536 40.0754C101.561 40.0754 102.489 39.9787 103.32 39.7854C104.152 39.5727 105.012 39.2537 105.901 38.8284V42.1634C105.128 42.5501 104.306 42.8304 103.436 43.0044C102.586 43.1977 101.551 43.2944 100.333 43.2944C98.7479 43.2944 97.3462 43.0044 96.1282 42.4244C94.9102 41.8251 93.9532 40.9261 93.2572 39.7274C92.5612 38.5287 92.2132 37.0207 92.2132 35.2034C92.2132 33.3474 92.5225 31.8104 93.1412 30.5924C93.7792 29.3551 94.6589 28.4271 95.7802 27.8084C96.9015 27.1897 98.2065 26.8804 99.6952 26.8804ZM99.7242 29.9544C98.8929 29.9544 98.1969 30.2251 97.6362 30.7664C97.0949 31.3077 96.7759 32.1487 96.6792 33.2894H102.74C102.74 32.6514 102.624 32.0811 102.392 31.5784C102.18 31.0757 101.851 30.6794 101.406 30.3894C100.962 30.0994 100.401 29.9544 99.7242 29.9544ZM120.686 27.1704H125.442L119.178 34.7684L125.993 43.0044H121.092L114.625 34.9714V43.0044H110.304V27.1704H114.625V34.8554L120.686 27.1704ZM141.367 30.4184H136.176V43.0044H131.855V30.4184H126.664V27.1704H141.367V30.4184ZM148.464 33.4344C148.464 33.7631 148.445 34.1691 148.406 34.6524C148.387 35.1357 148.358 35.6287 148.319 36.1314C148.3 36.6341 148.271 37.0787 148.232 37.4654C148.194 37.8521 148.165 38.1227 148.145 38.2774L155.453 27.1704H160.644V43.0044H156.468V36.6824C156.468 36.1604 156.488 35.5901 156.526 34.9714C156.565 34.3334 156.604 33.7437 156.642 33.2024C156.7 32.6417 156.739 32.2164 156.758 31.9264L149.479 43.0044H144.288V27.1704H148.464V33.4344ZM179.196 31.3174C179.196 32.1681 178.926 32.8931 178.384 33.4924C177.862 34.0917 177.079 34.4784 176.035 34.6524V34.7684C177.137 34.9037 178.017 35.2807 178.674 35.8994C179.351 36.5181 179.689 37.3107 179.689 38.2774C179.689 38.9541 179.554 39.5824 179.283 40.1624C179.032 40.7424 178.626 41.2451 178.065 41.6704C177.505 42.0957 176.78 42.4244 175.89 42.6564C175.02 42.8884 173.957 43.0044 172.7 43.0044H165.16V27.1704H172.7C173.938 27.1704 175.04 27.3057 176.006 27.5764C176.992 27.8277 177.766 28.2531 178.326 28.8524C178.906 29.4517 179.196 30.2734 179.196 31.3174ZM175.223 38.0454C175.223 37.4267 174.982 36.9821 174.498 36.7114C174.015 36.4214 173.29 36.2764 172.323 36.2764H169.481V40.0174H172.41C173.222 40.0174 173.889 39.8724 174.411 39.5824C174.953 39.2731 175.223 38.7607 175.223 38.0454ZM174.817 31.6654C174.817 31.1627 174.624 30.7954 174.237 30.5634C173.851 30.3314 173.28 30.2154 172.526 30.2154H169.481V33.3474H172.033C172.942 33.3474 173.628 33.2217 174.092 32.9704C174.576 32.6997 174.817 32.2647 174.817 31.6654ZM189.895 26.8514C192.021 26.8514 193.645 27.3154 194.767 28.2434C195.907 29.1521 196.478 30.5537 196.478 32.4484V43.0044H193.462L192.621 40.8584H192.505C192.06 41.4191 191.596 41.8831 191.113 42.2504C190.649 42.6177 190.107 42.8787 189.489 43.0334C188.889 43.2074 188.145 43.2944 187.256 43.2944C186.328 43.2944 185.487 43.1204 184.733 42.7724C183.998 42.4051 183.418 41.8541 182.993 41.1194C182.567 40.3654 182.355 39.4181 182.355 38.2774C182.355 36.5954 182.944 35.3581 184.124 34.5654C185.303 33.7534 187.072 33.3087 189.431 33.2314L192.186 33.1444V32.4484C192.186 31.6171 191.963 31.0081 191.519 30.6214C191.093 30.2347 190.494 30.0414 189.721 30.0414C188.947 30.0414 188.193 30.1574 187.459 30.3894C186.724 30.6021 185.989 30.8727 185.255 31.2014L183.834 28.2724C184.684 27.8277 185.622 27.4797 186.647 27.2284C187.691 26.9771 188.773 26.8514 189.895 26.8514ZM190.504 35.7254C189.112 35.7641 188.145 36.0154 187.604 36.4794C187.062 36.9434 186.792 37.5524 186.792 38.3064C186.792 38.9637 186.985 39.4374 187.372 39.7274C187.758 39.9981 188.261 40.1334 188.88 40.1334C189.808 40.1334 190.591 39.8627 191.229 39.3214C191.867 38.7607 192.186 37.9777 192.186 36.9724V35.6674L190.504 35.7254Z" fill="white"/>
<defs>
<filter id="filter0_di_1_175" x="168" y="0" width="62" height="62" filterUnits="userSpaceOnUse" color-interpolation-filters="sRGB">
<feFlood flood-opacity="0" result="BackgroundImageFix"/>
<feColorMatrix in="SourceAlpha" type="matrix" values="0 0 0 0 0 0 0 0 0 0 0 0 0 0 0 0 0 0 127 0" result="hardAlpha"/>
<feOffset dy="4"/>
<feGaussianBlur stdDeviation="9.5"/>
<feComposite in2="hardAlpha" operator="out"/>
<feColorMatrix type="matrix" values="0 0 0 0 0.0862745 0 0 0 0 0.470588 0 0 0 0 0.94902 0 0 0 0.2 0"/>
<feBlend mode="normal" in2="BackgroundImageFix" result="effect1_dropShadow_1_175"/>
<feBlend mode="normal" in="SourceGraphic" in2="effect1_dropShadow_1_175" result="shape"/>
<feColorMatrix in="SourceAlpha" type="matrix" values="0 0 0 0 0 0 0 0 0 0 0 0 0 0 0 0 0 0 127 0" result="hardAlpha"/>
<feOffset dy="4"/>
<feGaussianBlur stdDeviation="2"/>
<feComposite in2="hardAlpha" operator="arithmetic" k2="-1" k3="1"/>
<feColorMatrix type="matrix" values="0 0 0 0 0 0 0 0 0 0 0 0 0 0 0 0 0 0 0.12 0"/>
<feBlend mode="normal" in2="shape" result="effect2_innerShadow_1_175"/>
</filter>
<linearGradient id="paint0_linear_1_175" x1="185.132" y1="5.58823" x2="239.678" y2="11.4568" gradientUnits="userSpaceOnUse">
<stop stop-color="#3A8EF6"/>
<stop offset="1" stop-color="#6F3AFA"/>
</linearGradient>
</defs>
</svg>
