<svg width="19" height="23" viewBox="0 0 19 23" fill="none" xmlns="http://www.w3.org/2000/svg">
<path d="M9.50001 0C8.14234 0 7.09676 1.04213 7.09676 2.28821C7.09676 3.48841 7.08761 4.53851 7.08761 4.53851H4.67365C4.62821 4.53851 4.58426 4.54313 4.5409 4.54975H3.86951V6.70739H15.1305V4.54975H14.4591C14.4157 4.54313 14.3718 4.53851 14.3263 4.53851H11.9124C11.9124 4.53851 11.9399 3.58792 11.9399 2.29523C11.9399 1.09501 10.8577 0 9.50001 0ZM0.649902 2.18855V23H18.3501V2.18855H12.7425V3.69623H16.7296V21.4895H2.27192V3.69623H6.25751V2.18855H0.649902ZM9.50001 2.21661C9.9448 2.21661 10.3042 2.54589 10.3042 2.9536C10.3042 3.36206 9.9448 3.692 9.50001 3.692C9.05521 3.692 8.69586 3.36204 8.69586 2.9536C8.69586 2.54591 9.05521 2.21661 9.50001 2.21661ZM3.86951 8.17017V8.90857H4.67365V8.17017H3.86951ZM6.28344 8.18421V8.9226H15.1305V8.18421H6.28344ZM3.86951 10.9553V11.6937H4.67365V10.9553H3.86951ZM6.28344 10.9694V11.7092H15.1305V10.9694H6.28344ZM3.86951 13.7405V14.4789H4.67365V13.7405H3.86951ZM6.28344 13.7559V14.4943H15.1305V13.7559H6.28344ZM3.86951 16.527V17.2654H4.67365V16.527H3.86951ZM6.28344 16.5425V17.2809H15.1305V16.5425H6.28344ZM3.86951 19.3122V20.0506H4.67365V19.3122H3.86951ZM6.28344 19.3276V20.066H15.1305V19.3276H6.28344Z" fill="white"/>
</svg>
