<svg width="80" height="80" viewBox="0 0 80 80" fill="none" xmlns="http://www.w3.org/2000/svg">
<path d="M33 46H47M33 52H40M54 20H26C25.4696 20 24.9609 20.2107 24.5858 20.5858C24.2107 20.9609 24 21.4696 24 22V58C24 58.5304 24.2107 59.0391 24.5858 59.4142C24.9609 59.7893 25.4696 60 26 60H54C54.5304 60 55.0391 59.7893 55.4142 59.4142C55.7893 59.0391 56 58.5304 56 58V22C56 21.4696 55.7893 20.9609 55.4142 20.5858C55.0391 20.2107 54.5304 20 54 20V20Z" stroke="#506AF7" stroke-width="4" stroke-linecap="round" stroke-linejoin="round"/>
<path d="M46 29L38 37L34 33" stroke="#506AF7" stroke-width="4" stroke-linecap="round" stroke-linejoin="round"/>
<circle opacity="0.1" cx="40" cy="40" r="40" fill="#855FCE"/>
</svg>
