<svg width="260" height="70" viewBox="0 0 260 70" fill="none" xmlns="http://www.w3.org/2000/svg">
<g filter="url(#filter0_di_0_12)">
<circle cx="229" cy="27.1875" r="12" fill="url(#paint0_linear_0_12)"/>
</g>
<path d="M228.125 28.4456L226.992 27.3125L226.375 27.9294L228.125 29.6794L231.625 26.1794L231.008 25.5625L228.125 28.4456Z" fill="white"/>
<path d="M229 34.3125L226.298 32.8718C225.528 32.462 224.884 31.8502 224.435 31.102C223.986 30.3538 223.749 29.4975 223.75 28.625V22.9375C223.75 22.7055 223.842 22.4831 224.007 22.319C224.171 22.155 224.393 22.0627 224.625 22.0625H233.375C233.607 22.0627 233.829 22.155 233.993 22.319C234.158 22.4831 234.25 22.7055 234.25 22.9375V28.625C234.251 29.4975 234.014 30.3538 233.565 31.102C233.116 31.8502 232.472 32.462 231.702 32.8718L229 34.3125ZM224.625 22.9375V28.625C224.624 29.3389 224.818 30.0395 225.185 30.6517C225.553 31.2638 226.08 31.7644 226.71 32.0996L229 33.3207L231.29 32.1001C231.92 31.7648 232.447 31.2642 232.815 30.6519C233.182 30.0397 233.376 29.339 233.375 28.625V22.9375H224.625Z" fill="white"/>
<path d="M2.88 52.1875V29.3395H20.96V52.1875H16.128V33.3715H7.712V52.1875H2.88ZM33.5398 34.3955C35.1611 34.3955 36.5478 34.7048 37.6998 35.3235C38.8731 35.9422 39.7798 36.8382 40.4198 38.0115C41.0598 39.1848 41.3798 40.6248 41.3798 42.3315V44.6355H30.1158C30.1584 45.9795 30.5531 47.0355 31.2998 47.8035C32.0678 48.5715 33.1238 48.9555 34.4678 48.9555C35.5984 48.9555 36.6224 48.8488 37.5398 48.6355C38.4571 48.4008 39.4064 48.0488 40.3878 47.5795V51.2595C39.5344 51.6862 38.6278 51.9955 37.6678 52.1875C36.7291 52.4008 35.5878 52.5075 34.2438 52.5075C32.4944 52.5075 30.9478 52.1875 29.6038 51.5475C28.2598 50.8862 27.2038 49.8942 26.4358 48.5715C25.6678 47.2488 25.2838 45.5848 25.2838 43.5795C25.2838 41.5315 25.6251 39.8355 26.3078 38.4915C27.0118 37.1262 27.9824 36.1022 29.2198 35.4195C30.4571 34.7368 31.8971 34.3955 33.5398 34.3955ZM33.5718 37.7875C32.6544 37.7875 31.8864 38.0862 31.2678 38.6835C30.6704 39.2808 30.3184 40.2088 30.2118 41.4675H36.8998C36.8998 40.7635 36.7718 40.1342 36.5158 39.5795C36.2811 39.0248 35.9184 38.5875 35.4278 38.2675C34.9371 37.9475 34.3184 37.7875 33.5718 37.7875ZM54.974 34.3955C56.9367 34.3955 58.526 35.1635 59.742 36.6995C60.958 38.2142 61.566 40.4542 61.566 43.4195C61.566 45.4035 61.278 47.0782 60.702 48.4435C60.126 49.7875 59.3367 50.8008 58.334 51.4835C57.3313 52.1662 56.1687 52.5075 54.846 52.5075C54.014 52.5075 53.2887 52.4008 52.67 52.1875C52.0727 51.9742 51.5607 51.6968 51.134 51.3555C50.7073 51.0142 50.334 50.6515 50.014 50.2675H49.758C49.8433 50.6728 49.9073 51.0995 49.95 51.5475C49.9927 51.9742 50.014 52.4008 50.014 52.8275V59.8675H45.246V34.7155H49.118L49.79 36.9875H50.014C50.334 36.5182 50.718 36.0915 51.166 35.7075C51.614 35.3022 52.1473 34.9822 52.766 34.7475C53.406 34.5128 54.142 34.3955 54.974 34.3955ZM53.438 38.2035C52.606 38.2035 51.9447 38.3742 51.454 38.7155C50.9633 39.0568 50.6007 39.5795 50.366 40.2835C50.1527 40.9662 50.0353 41.8302 50.014 42.8755V43.3875C50.014 44.5182 50.1207 45.4782 50.334 46.2675C50.5473 47.0355 50.91 47.6222 51.422 48.0275C51.934 48.4328 52.6273 48.6355 53.502 48.6355C54.2273 48.6355 54.8247 48.4328 55.294 48.0275C55.7633 47.6222 56.1153 47.0248 56.35 46.2355C56.5847 45.4462 56.702 44.4862 56.702 43.3555C56.702 41.6488 56.4353 40.3688 55.902 39.5155C55.39 38.6408 54.5687 38.2035 53.438 38.2035ZM72.6 52.5075C70.872 52.5075 69.4 52.1982 68.184 51.5795C66.968 50.9395 66.04 49.9582 65.4 48.6355C64.76 47.3128 64.44 45.6168 64.44 43.5475C64.44 41.4142 64.8027 39.6755 65.528 38.3315C66.2533 36.9875 67.256 35.9955 68.536 35.3555C69.8373 34.7155 71.3307 34.3955 73.016 34.3955C74.2107 34.3955 75.2453 34.5128 76.12 34.7475C77.016 34.9822 77.7947 35.2595 78.456 35.5795L77.048 39.2595C76.3013 38.9608 75.5973 38.7155 74.936 38.5235C74.296 38.3315 73.656 38.2355 73.016 38.2355C72.184 38.2355 71.4907 38.4382 70.936 38.8435C70.3813 39.2275 69.9653 39.8142 69.688 40.6035C69.432 41.3715 69.304 42.3422 69.304 43.5155C69.304 44.6675 69.4427 45.6275 69.72 46.3955C70.0187 47.1422 70.4453 47.7075 71 48.0915C71.5547 48.4542 72.2267 48.6355 73.016 48.6355C74.0187 48.6355 74.904 48.5075 75.672 48.2515C76.44 47.9742 77.1867 47.6008 77.912 47.1315V51.1955C77.1867 51.6648 76.4187 51.9955 75.608 52.1875C74.8187 52.4008 73.816 52.5075 72.6 52.5075ZM97.8055 34.7155V52.1875H93.0375V38.2995H86.7015V52.1875H81.9335V34.7155H97.8055ZM110.009 34.3955C111.63 34.3955 113.017 34.7048 114.169 35.3235C115.342 35.9422 116.249 36.8382 116.889 38.0115C117.529 39.1848 117.849 40.6248 117.849 42.3315V44.6355H106.585C106.627 45.9795 107.022 47.0355 107.769 47.8035C108.537 48.5715 109.593 48.9555 110.937 48.9555C112.067 48.9555 113.091 48.8488 114.009 48.6355C114.926 48.4008 115.875 48.0488 116.857 47.5795V51.2595C116.003 51.6862 115.097 51.9955 114.137 52.1875C113.198 52.4008 112.057 52.5075 110.713 52.5075C108.963 52.5075 107.417 52.1875 106.073 51.5475C104.729 50.8862 103.673 49.8942 102.905 48.5715C102.137 47.2488 101.753 45.5848 101.753 43.5795C101.753 41.5315 102.094 39.8355 102.777 38.4915C103.481 37.1262 104.451 36.1022 105.689 35.4195C106.926 34.7368 108.366 34.3955 110.009 34.3955ZM110.041 37.7875C109.123 37.7875 108.355 38.0862 107.737 38.6835C107.139 39.2808 106.787 40.2088 106.681 41.4675H113.369C113.369 40.7635 113.241 40.1342 112.985 39.5795C112.75 39.0248 112.387 38.5875 111.897 38.2675C111.406 37.9475 110.787 37.7875 110.041 37.7875ZM133.171 34.7155H138.419L131.507 43.0995L139.027 52.1875H133.619L126.483 43.3235V52.1875H121.715V34.7155H126.483V43.1955L133.171 34.7155ZM155.991 38.2995H150.263V52.1875H145.495V38.2995H139.767V34.7155H155.991V38.2995ZM163.823 41.6275C163.823 41.9902 163.801 42.4382 163.759 42.9715C163.737 43.5048 163.705 44.0488 163.663 44.6035C163.641 45.1582 163.609 45.6488 163.567 46.0755C163.524 46.5022 163.492 46.8008 163.471 46.9715L171.535 34.7155H177.263V52.1875H172.655V45.2115C172.655 44.6355 172.676 44.0062 172.719 43.3235C172.761 42.6195 172.804 41.9688 172.847 41.3715C172.911 40.7528 172.953 40.2835 172.975 39.9635L164.943 52.1875H159.215V34.7155H163.823V41.6275ZM197.734 39.2915C197.734 40.2302 197.435 41.0302 196.838 41.6915C196.262 42.3528 195.398 42.7795 194.246 42.9715V43.0995C195.462 43.2488 196.433 43.6648 197.158 44.3475C197.905 45.0302 198.278 45.9048 198.278 46.9715C198.278 47.7182 198.129 48.4115 197.83 49.0515C197.553 49.6915 197.105 50.2462 196.486 50.7155C195.867 51.1848 195.067 51.5475 194.086 51.8035C193.126 52.0595 191.953 52.1875 190.566 52.1875H182.246V34.7155H190.566C191.931 34.7155 193.147 34.8648 194.214 35.1635C195.302 35.4408 196.155 35.9102 196.774 36.5715C197.414 37.2328 197.734 38.1395 197.734 39.2915ZM193.35 46.7155C193.35 46.0328 193.083 45.5422 192.55 45.2435C192.017 44.9235 191.217 44.7635 190.15 44.7635H187.014V48.8915H190.246C191.142 48.8915 191.878 48.7315 192.454 48.4115C193.051 48.0702 193.35 47.5048 193.35 46.7155ZM192.902 39.6755C192.902 39.1208 192.689 38.7155 192.262 38.4595C191.835 38.2035 191.206 38.0755 190.374 38.0755H187.014V41.5315H189.83C190.833 41.5315 191.59 41.3928 192.102 41.1155C192.635 40.8168 192.902 40.3368 192.902 39.6755ZM209.539 34.3635C211.886 34.3635 213.678 34.8755 214.915 35.8995C216.174 36.9022 216.803 38.4488 216.803 40.5395V52.1875H213.475L212.547 49.8195H212.419C211.928 50.4382 211.416 50.9502 210.883 51.3555C210.371 51.7608 209.774 52.0488 209.091 52.2195C208.43 52.4115 207.608 52.5075 206.627 52.5075C205.603 52.5075 204.675 52.3155 203.843 51.9315C203.032 51.5262 202.392 50.9182 201.923 50.1075C201.454 49.2755 201.219 48.2302 201.219 46.9715C201.219 45.1155 201.87 43.7502 203.171 42.8755C204.472 41.9795 206.424 41.4888 209.027 41.4035L212.067 41.3075V40.5395C212.067 39.6222 211.822 38.9502 211.331 38.5235C210.862 38.0968 210.2 37.8835 209.347 37.8835C208.494 37.8835 207.662 38.0115 206.851 38.2675C206.04 38.5022 205.23 38.8008 204.419 39.1635L202.851 35.9315C203.79 35.4408 204.824 35.0568 205.955 34.7795C207.107 34.5022 208.302 34.3635 209.539 34.3635ZM210.211 44.1555C208.675 44.1982 207.608 44.4755 207.011 44.9875C206.414 45.4995 206.115 46.1715 206.115 47.0035C206.115 47.7288 206.328 48.2515 206.755 48.5715C207.182 48.8702 207.736 49.0195 208.419 49.0195C209.443 49.0195 210.307 48.7208 211.011 48.1235C211.715 47.5048 212.067 46.6408 212.067 45.5315V44.0915L210.211 44.1555Z" fill="url(#paint1_linear_0_12)"/>
<path d="M3.564 65.9857C3.372 66.4117 3.177 66.7687 2.979 67.0567C2.787 67.3387 2.559 67.5517 2.295 67.6957C2.031 67.8337 1.695 67.9027 1.287 67.9027C1.119 67.9027 0.96 67.8907 0.81 67.8667C0.666 67.8427 0.534 67.8097 0.414 67.7677V66.9667C0.534 67.0207 0.663 67.0657 0.801 67.1017C0.939 67.1317 1.083 67.1467 1.233 67.1467C1.455 67.1467 1.644 67.1167 1.8 67.0567C1.962 66.9907 2.103 66.8857 2.223 66.7417C2.349 66.5977 2.466 66.4057 2.574 66.1657L0.099 61.3867H0.99L2.781 64.9237C2.805 64.9657 2.829 65.0167 2.853 65.0767C2.877 65.1307 2.901 65.1877 2.925 65.2477C2.955 65.3077 2.979 65.3647 2.997 65.4187H3.033C3.051 65.3767 3.069 65.3287 3.087 65.2747C3.111 65.2147 3.132 65.1577 3.15 65.1037C3.174 65.0437 3.195 64.9927 3.213 64.9507L4.761 61.3867H5.616L3.564 65.9857ZM7.16843 64.7437C7.16843 65.0257 7.24643 65.2357 7.40243 65.3737C7.56443 65.5057 7.79543 65.5717 8.09543 65.5717C8.39543 65.5717 8.66843 65.5267 8.91443 65.4367C9.16043 65.3407 9.41243 65.2147 9.67043 65.0587V62.9887H10.4624V67.8127H9.67043V65.6617C9.40043 65.8357 9.13343 65.9737 8.86943 66.0757C8.61143 66.1717 8.29943 66.2197 7.93343 66.2197C7.44143 66.2197 7.05743 66.0907 6.78143 65.8327C6.51143 65.5747 6.37643 65.2297 6.37643 64.7977V62.9887H7.16843V64.7437ZM14.128 62.8987C14.542 62.8987 14.896 62.9887 15.19 63.1687C15.49 63.3487 15.718 63.6037 15.874 63.9337C16.036 64.2577 16.117 64.6387 16.117 65.0767V65.5537H12.814C12.826 66.0997 12.964 66.5167 13.228 66.8047C13.498 67.0867 13.873 67.2277 14.353 67.2277C14.659 67.2277 14.929 67.2007 15.163 67.1467C15.403 67.0867 15.649 67.0027 15.901 66.8947V67.5877C15.655 67.6957 15.412 67.7737 15.172 67.8217C14.932 67.8757 14.647 67.9027 14.317 67.9027C13.861 67.9027 13.456 67.8097 13.102 67.6237C12.754 67.4377 12.481 67.1617 12.283 66.7957C12.091 66.4237 11.995 65.9707 11.995 65.4367C11.995 64.9087 12.082 64.4557 12.256 64.0777C12.436 63.6997 12.685 63.4087 13.003 63.2047C13.327 63.0007 13.702 62.8987 14.128 62.8987ZM14.119 63.5467C13.741 63.5467 13.441 63.6697 13.219 63.9157C13.003 64.1557 12.874 64.4917 12.832 64.9237H15.289C15.289 64.6477 15.247 64.4077 15.163 64.2037C15.079 63.9997 14.95 63.8407 14.776 63.7267C14.608 63.6067 14.389 63.5467 14.119 63.5467ZM17.363 64.9147C17.363 64.2127 17.432 63.6157 17.57 63.1237C17.714 62.6257 17.933 62.2297 18.227 61.9357C18.527 61.6357 18.911 61.4347 19.379 61.3327C19.769 61.2487 20.15 61.1737 20.522 61.1077C20.894 61.0417 21.242 60.9817 21.566 60.9277L21.701 61.6207C21.545 61.6447 21.371 61.6747 21.179 61.7107C20.987 61.7407 20.792 61.7737 20.594 61.8097C20.396 61.8397 20.204 61.8727 20.018 61.9087C19.838 61.9387 19.679 61.9687 19.541 61.9987C19.343 62.0407 19.166 62.1127 19.01 62.2147C18.854 62.3107 18.719 62.4427 18.605 62.6107C18.497 62.7787 18.41 62.9857 18.344 63.2317C18.278 63.4777 18.239 63.7687 18.227 64.1047H18.281C18.365 63.9907 18.479 63.8737 18.623 63.7537C18.773 63.6337 18.95 63.5317 19.154 63.4477C19.364 63.3637 19.601 63.3217 19.865 63.3217C20.285 63.3217 20.633 63.4147 20.909 63.6007C21.191 63.7807 21.401 64.0327 21.539 64.3567C21.683 64.6807 21.755 65.0587 21.755 65.4907C21.755 66.0247 21.662 66.4717 21.476 66.8317C21.29 67.1917 21.032 67.4617 20.702 67.6417C20.372 67.8157 19.988 67.9027 19.55 67.9027C19.22 67.9027 18.92 67.8397 18.65 67.7137C18.38 67.5817 18.149 67.3897 17.957 67.1377C17.765 66.8857 17.618 66.5737 17.516 66.2017C17.414 65.8297 17.363 65.4007 17.363 64.9147ZM19.613 67.2457C19.877 67.2457 20.105 67.1917 20.297 67.0837C20.495 66.9757 20.648 66.7987 20.756 66.5527C20.864 66.3067 20.918 65.9797 20.918 65.5717C20.918 65.0797 20.825 64.6927 20.639 64.4107C20.459 64.1227 20.159 63.9787 19.739 63.9787C19.475 63.9787 19.235 64.0387 19.019 64.1587C18.803 64.2727 18.623 64.4047 18.479 64.5547C18.335 64.7047 18.233 64.8307 18.173 64.9327C18.173 65.2267 18.194 65.5117 18.236 65.7877C18.278 66.0637 18.35 66.3127 18.452 66.5347C18.56 66.7507 18.707 66.9247 18.893 67.0567C19.085 67.1827 19.325 67.2457 19.613 67.2457ZM24.0647 62.9887V64.9957H26.6837V62.9887H27.4757V67.8127H26.6837V65.6617H24.0647V67.8127H23.2727V62.9887H24.0647ZM29.2732 67.8127V62.9887H30.0652V64.9687H31.3162C31.7362 64.9687 32.0812 65.0197 32.3512 65.1217C32.6212 65.2237 32.8222 65.3767 32.9542 65.5807C33.0862 65.7787 33.1522 66.0307 33.1522 66.3367C33.1522 66.6367 33.0862 66.8977 32.9542 67.1197C32.8282 67.3417 32.6272 67.5127 32.3512 67.6327C32.0812 67.7527 31.7242 67.8127 31.2802 67.8127H29.2732ZM31.2082 67.1737C31.5502 67.1737 31.8292 67.1167 32.0452 67.0027C32.2612 66.8827 32.3692 66.6757 32.3692 66.3817C32.3692 66.0877 32.2702 65.8897 32.0722 65.7877C31.8742 65.6797 31.5892 65.6257 31.2172 65.6257H30.0652V67.1737H31.2082ZM33.9532 67.8127V62.9887H34.7452V67.8127H33.9532ZM40.4541 60.9907C40.4301 61.2907 40.3551 61.5427 40.2291 61.7467C40.1091 61.9507 39.9291 62.1037 39.6891 62.2057C39.4491 62.3077 39.1371 62.3587 38.7531 62.3587C38.3631 62.3587 38.0481 62.3077 37.8081 62.2057C37.5741 62.1037 37.4031 61.9537 37.2951 61.7557C37.1871 61.5517 37.1211 61.2967 37.0971 60.9907H37.8351C37.8651 61.3147 37.9491 61.5337 38.0871 61.6477C38.2311 61.7557 38.4591 61.8097 38.7711 61.8097C39.0471 61.8097 39.2631 61.7527 39.4191 61.6387C39.5811 61.5187 39.6771 61.3027 39.7071 60.9907H40.4541ZM37.2951 65.9317C37.2951 65.9857 37.2921 66.0637 37.2861 66.1657C37.2861 66.2617 37.2831 66.3667 37.2771 66.4807C37.2711 66.5887 37.2651 66.6937 37.2591 66.7957C37.2531 66.8917 37.2471 66.9697 37.2411 67.0297L39.8241 62.9887H40.7961V67.8127H40.0581V64.9687C40.0581 64.8727 40.0581 64.7467 40.0581 64.5907C40.0641 64.4347 40.0701 64.2817 40.0761 64.1317C40.0821 63.9757 40.0881 63.8587 40.0941 63.7807L37.5291 67.8127H36.5481V62.9887H37.2951V65.9317ZM49.8296 69.4867H49.0556V67.8127H45.0686V62.9887H45.8606V67.1467H48.3536V62.9887H49.1456V67.1557H49.8296V69.4867ZM52.8881 62.8987C53.3021 62.8987 53.6561 62.9887 53.9501 63.1687C54.2501 63.3487 54.4781 63.6037 54.6341 63.9337C54.7961 64.2577 54.8771 64.6387 54.8771 65.0767V65.5537H51.5741C51.5861 66.0997 51.7241 66.5167 51.9881 66.8047C52.2581 67.0867 52.6331 67.2277 53.1131 67.2277C53.4191 67.2277 53.6891 67.2007 53.9231 67.1467C54.1631 67.0867 54.4091 67.0027 54.6611 66.8947V67.5877C54.4151 67.6957 54.1721 67.7737 53.9321 67.8217C53.6921 67.8757 53.4071 67.9027 53.0771 67.9027C52.6211 67.9027 52.2161 67.8097 51.8621 67.6237C51.5141 67.4377 51.2411 67.1617 51.0431 66.7957C50.8511 66.4237 50.7551 65.9707 50.7551 65.4367C50.7551 64.9087 50.8421 64.4557 51.0161 64.0777C51.1961 63.6997 51.4451 63.4087 51.7631 63.2047C52.0871 63.0007 52.4621 62.8987 52.8881 62.8987ZM52.8791 63.5467C52.5011 63.5467 52.2011 63.6697 51.9791 63.9157C51.7631 64.1557 51.6341 64.4917 51.5921 64.9237H54.0491C54.0491 64.6477 54.0071 64.4077 53.9231 64.2037C53.8391 63.9997 53.7101 63.8407 53.5361 63.7267C53.3681 63.6067 53.1491 63.5467 52.8791 63.5467ZM57.1672 62.9887V64.9957H59.7862V62.9887H60.5782V67.8127H59.7862V65.6617H57.1672V67.8127H56.3752V62.9887H57.1672ZM65.7056 63.6547H64.1306V67.8127H63.3476V63.6547H61.7906V62.9887H65.7056V63.6547ZM69.2209 62.8987C69.8149 62.8987 70.2919 63.1057 70.6519 63.5197C71.0179 63.9337 71.2009 64.5577 71.2009 65.3917C71.2009 65.9377 71.1169 66.3997 70.9489 66.7777C70.7869 67.1497 70.5559 67.4317 70.2559 67.6237C69.9619 67.8097 69.6139 67.9027 69.2119 67.9027C68.9659 67.9027 68.7469 67.8697 68.5549 67.8037C68.3629 67.7377 68.1979 67.6537 68.0599 67.5517C67.9279 67.4437 67.8139 67.3267 67.7179 67.2007H67.6639C67.6759 67.3027 67.6879 67.4317 67.6999 67.5877C67.7119 67.7437 67.7179 67.8787 67.7179 67.9927V69.9727H66.9259V62.9887H67.5739L67.6819 63.6457H67.7179C67.8139 63.5077 67.9279 63.3817 68.0599 63.2677C68.1979 63.1537 68.3599 63.0637 68.5459 62.9977C68.7379 62.9317 68.9629 62.8987 69.2209 62.8987ZM69.0769 63.5647C68.7529 63.5647 68.4919 63.6277 68.2939 63.7537C68.0959 63.8737 67.9519 64.0567 67.8619 64.3027C67.7719 64.5487 67.7239 64.8607 67.7179 65.2387V65.3917C67.7179 65.7877 67.7599 66.1237 67.8439 66.3997C67.9279 66.6757 68.0689 66.8857 68.2669 67.0297C68.4709 67.1737 68.7469 67.2457 69.0949 67.2457C69.3889 67.2457 69.6289 67.1647 69.8149 67.0027C70.0069 66.8407 70.1479 66.6217 70.2379 66.3457C70.3339 66.0637 70.3819 65.7427 70.3819 65.3827C70.3819 64.8307 70.2739 64.3897 70.0579 64.0597C69.8479 63.7297 69.5209 63.5647 69.0769 63.5647ZM78.7823 62.9887V67.1467H79.4843V69.4867H78.7193V67.8127H75.3623V69.4867H74.6063V67.1467H74.9933C75.2693 66.7627 75.4973 66.3457 75.6773 65.8957C75.8633 65.4397 76.0013 64.9657 76.0913 64.4737C76.1873 63.9757 76.2383 63.4807 76.2443 62.9887H78.7823ZM76.9463 63.6097C76.9223 64.0177 76.8593 64.4407 76.7573 64.8787C76.6553 65.3107 76.5233 65.7247 76.3613 66.1207C76.2053 66.5167 76.0223 66.8587 75.8123 67.1467H78.0173V63.6097H76.9463ZM84.8938 65.3917C84.8938 65.7937 84.8398 66.1507 84.7318 66.4627C84.6298 66.7687 84.4798 67.0297 84.2818 67.2457C84.0898 67.4617 83.8528 67.6267 83.5708 67.7407C83.2948 67.8487 82.9858 67.9027 82.6438 67.9027C82.3258 67.9027 82.0318 67.8487 81.7618 67.7407C81.4918 67.6267 81.2578 67.4617 81.0598 67.2457C80.8618 67.0297 80.7058 66.7687 80.5918 66.4627C80.4838 66.1507 80.4298 65.7937 80.4298 65.3917C80.4298 64.8577 80.5198 64.4077 80.6998 64.0417C80.8798 63.6697 81.1378 63.3877 81.4738 63.1957C81.8098 62.9977 82.2088 62.8987 82.6708 62.8987C83.1088 62.8987 83.4928 62.9977 83.8228 63.1957C84.1588 63.3877 84.4198 63.6697 84.6058 64.0417C84.7978 64.4077 84.8938 64.8577 84.8938 65.3917ZM81.2488 65.3917C81.2488 65.7697 81.2968 66.0997 81.3928 66.3817C81.4948 66.6577 81.6508 66.8707 81.8608 67.0207C82.0708 67.1707 82.3378 67.2457 82.6618 67.2457C82.9858 67.2457 83.2528 67.1707 83.4628 67.0207C83.6728 66.8707 83.8258 66.6577 83.9218 66.3817C84.0238 66.0997 84.0748 65.7697 84.0748 65.3917C84.0748 65.0077 84.0238 64.6807 83.9218 64.4107C83.8198 64.1407 83.6638 63.9337 83.4538 63.7897C83.2498 63.6397 82.9828 63.5647 82.6528 63.5647C82.1608 63.5647 81.8038 63.7267 81.5818 64.0507C81.3598 64.3747 81.2488 64.8217 81.2488 65.3917ZM90.496 62.9887V67.8127H89.704V63.6637H87.211V67.8127H86.419V62.9887H90.496ZM96.4992 65.3917C96.4992 65.7937 96.4452 66.1507 96.3372 66.4627C96.2352 66.7687 96.0852 67.0297 95.8872 67.2457C95.6952 67.4617 95.4582 67.6267 95.1762 67.7407C94.9002 67.8487 94.5912 67.9027 94.2492 67.9027C93.9312 67.9027 93.6372 67.8487 93.3672 67.7407C93.0972 67.6267 92.8632 67.4617 92.6652 67.2457C92.4672 67.0297 92.3112 66.7687 92.1972 66.4627C92.0892 66.1507 92.0352 65.7937 92.0352 65.3917C92.0352 64.8577 92.1252 64.4077 92.3052 64.0417C92.4852 63.6697 92.7432 63.3877 93.0792 63.1957C93.4152 62.9977 93.8142 62.8987 94.2762 62.8987C94.7142 62.8987 95.0982 62.9977 95.4282 63.1957C95.7642 63.3877 96.0252 63.6697 96.2112 64.0417C96.4032 64.4077 96.4992 64.8577 96.4992 65.3917ZM92.8542 65.3917C92.8542 65.7697 92.9022 66.0997 92.9982 66.3817C93.1002 66.6577 93.2562 66.8707 93.4662 67.0207C93.6762 67.1707 93.9432 67.2457 94.2672 67.2457C94.5912 67.2457 94.8582 67.1707 95.0682 67.0207C95.2782 66.8707 95.4312 66.6577 95.5272 66.3817C95.6292 66.0997 95.6802 65.7697 95.6802 65.3917C95.6802 65.0077 95.6292 64.6807 95.5272 64.4107C95.4252 64.1407 95.2692 63.9337 95.0592 63.7897C94.8552 63.6397 94.5882 63.5647 94.2582 63.5647C93.7662 63.5647 93.4092 63.7267 93.1872 64.0507C92.9652 64.3747 92.8542 64.8217 92.8542 65.3917ZM101.696 67.8127H100.895V63.6457H99.4734C99.4134 64.4077 99.3384 65.0587 99.2484 65.5987C99.1584 66.1327 99.0444 66.5677 98.9064 66.9037C98.7684 67.2397 98.6034 67.4857 98.4114 67.6417C98.2194 67.7977 97.9944 67.8757 97.7364 67.8757C97.6584 67.8757 97.5804 67.8697 97.5024 67.8577C97.4304 67.8517 97.3704 67.8367 97.3224 67.8127V67.2187C97.3584 67.2307 97.3974 67.2397 97.4394 67.2457C97.4814 67.2517 97.5234 67.2547 97.5654 67.2547C97.6974 67.2547 97.8174 67.2007 97.9254 67.0927C98.0334 66.9847 98.1294 66.8197 98.2134 66.5977C98.3034 66.3757 98.3844 66.0967 98.4564 65.7607C98.5284 65.4187 98.5914 65.0167 98.6454 64.5547C98.6994 64.0927 98.7474 63.5707 98.7894 62.9887H101.696V67.8127ZM104.29 62.9887V64.9957H106.909V62.9887H107.701V67.8127H106.909V65.6617H104.29V67.8127H103.498V62.9887H104.29ZM110.245 65.9317C110.245 65.9857 110.242 66.0637 110.236 66.1657C110.236 66.2617 110.233 66.3667 110.227 66.4807C110.221 66.5887 110.215 66.6937 110.209 66.7957C110.203 66.8917 110.197 66.9697 110.191 67.0297L112.774 62.9887H113.746V67.8127H113.008V64.9687C113.008 64.8727 113.008 64.7467 113.008 64.5907C113.014 64.4347 113.02 64.2817 113.026 64.1317C113.032 63.9757 113.038 63.8587 113.044 63.7807L110.479 67.8127H109.498V62.9887H110.245V65.9317ZM118.881 63.6547H117.306V67.8127H116.523V63.6547H114.966V62.9887H118.881V63.6547ZM121.877 62.8987C122.291 62.8987 122.645 62.9887 122.939 63.1687C123.239 63.3487 123.467 63.6037 123.623 63.9337C123.785 64.2577 123.866 64.6387 123.866 65.0767V65.5537H120.563C120.575 66.0997 120.713 66.5167 120.977 66.8047C121.247 67.0867 121.622 67.2277 122.102 67.2277C122.408 67.2277 122.678 67.2007 122.912 67.1467C123.152 67.0867 123.398 67.0027 123.65 66.8947V67.5877C123.404 67.6957 123.161 67.7737 122.921 67.8217C122.681 67.8757 122.396 67.9027 122.066 67.9027C121.61 67.9027 121.205 67.8097 120.851 67.6237C120.503 67.4377 120.23 67.1617 120.032 66.7957C119.84 66.4237 119.744 65.9707 119.744 65.4367C119.744 64.9087 119.831 64.4557 120.005 64.0777C120.185 63.6997 120.434 63.4087 120.752 63.2047C121.076 63.0007 121.451 62.8987 121.877 62.8987ZM121.868 63.5467C121.49 63.5467 121.19 63.6697 120.968 63.9157C120.752 64.1557 120.623 64.4917 120.581 64.9237H123.038C123.038 64.6477 122.996 64.4077 122.912 64.2037C122.828 63.9997 122.699 63.8407 122.525 63.7267C122.357 63.6067 122.138 63.5467 121.868 63.5467ZM129.036 67.8127H128.235V63.6457H126.813C126.753 64.4077 126.678 65.0587 126.588 65.5987C126.498 66.1327 126.384 66.5677 126.246 66.9037C126.108 67.2397 125.943 67.4857 125.751 67.6417C125.559 67.7977 125.334 67.8757 125.076 67.8757C124.998 67.8757 124.92 67.8697 124.842 67.8577C124.77 67.8517 124.71 67.8367 124.662 67.8127V67.2187C124.698 67.2307 124.737 67.2397 124.779 67.2457C124.821 67.2517 124.863 67.2547 124.905 67.2547C125.037 67.2547 125.157 67.2007 125.265 67.0927C125.373 66.9847 125.469 66.8197 125.553 66.5977C125.643 66.3757 125.724 66.0967 125.796 65.7607C125.868 65.4187 125.931 65.0167 125.985 64.5547C126.039 64.0927 126.087 63.5707 126.129 62.9887H129.036V67.8127ZM133.06 64.9687C133.48 64.9687 133.828 65.0197 134.104 65.1217C134.38 65.2237 134.587 65.3767 134.725 65.5807C134.869 65.7787 134.941 66.0307 134.941 66.3367C134.941 66.6367 134.872 66.8977 134.734 67.1197C134.602 67.3417 134.395 67.5127 134.113 67.6327C133.831 67.7527 133.468 67.8127 133.024 67.8127H130.837V62.9887H131.629V64.9687H133.06ZM134.149 66.3817C134.149 66.0877 134.044 65.8897 133.834 65.7877C133.63 65.6797 133.342 65.6257 132.97 65.6257H131.629V67.1737H132.988C133.324 67.1737 133.6 67.1137 133.816 66.9937C134.038 66.8737 134.149 66.6697 134.149 66.3817ZM137.243 62.9887V64.9957H139.862V62.9887H140.654V67.8127H139.862V65.6617H137.243V67.8127H136.451V62.9887H137.243ZM146.645 65.3917C146.645 65.7937 146.591 66.1507 146.483 66.4627C146.381 66.7687 146.231 67.0297 146.033 67.2457C145.841 67.4617 145.604 67.6267 145.322 67.7407C145.046 67.8487 144.737 67.9027 144.395 67.9027C144.077 67.9027 143.783 67.8487 143.513 67.7407C143.243 67.6267 143.009 67.4617 142.811 67.2457C142.613 67.0297 142.457 66.7687 142.343 66.4627C142.235 66.1507 142.181 65.7937 142.181 65.3917C142.181 64.8577 142.271 64.4077 142.451 64.0417C142.631 63.6697 142.889 63.3877 143.225 63.1957C143.561 62.9977 143.96 62.8987 144.422 62.8987C144.86 62.8987 145.244 62.9977 145.574 63.1957C145.91 63.3877 146.171 63.6697 146.357 64.0417C146.549 64.4077 146.645 64.8577 146.645 65.3917ZM143 65.3917C143 65.7697 143.048 66.0997 143.144 66.3817C143.246 66.6577 143.402 66.8707 143.612 67.0207C143.822 67.1707 144.089 67.2457 144.413 67.2457C144.737 67.2457 145.004 67.1707 145.214 67.0207C145.424 66.8707 145.577 66.6577 145.673 66.3817C145.775 66.0997 145.826 65.7697 145.826 65.3917C145.826 65.0077 145.775 64.6807 145.673 64.4107C145.571 64.1407 145.415 63.9337 145.205 63.7897C145.001 63.6397 144.734 63.5647 144.404 63.5647C143.912 63.5647 143.555 63.7267 143.333 64.0507C143.111 64.3747 143 64.8217 143 65.3917ZM151.113 62.9887V63.6547H148.962V67.8127H148.17V62.9887H151.113ZM156.44 65.3917C156.44 65.7937 156.386 66.1507 156.278 66.4627C156.176 66.7687 156.026 67.0297 155.828 67.2457C155.636 67.4617 155.399 67.6267 155.117 67.7407C154.841 67.8487 154.532 67.9027 154.19 67.9027C153.872 67.9027 153.578 67.8487 153.308 67.7407C153.038 67.6267 152.804 67.4617 152.606 67.2457C152.408 67.0297 152.252 66.7687 152.138 66.4627C152.03 66.1507 151.976 65.7937 151.976 65.3917C151.976 64.8577 152.066 64.4077 152.246 64.0417C152.426 63.6697 152.684 63.3877 153.02 63.1957C153.356 62.9977 153.755 62.8987 154.217 62.8987C154.655 62.8987 155.039 62.9977 155.369 63.1957C155.705 63.3877 155.966 63.6697 156.152 64.0417C156.344 64.4077 156.44 64.8577 156.44 65.3917ZM152.795 65.3917C152.795 65.7697 152.843 66.0997 152.939 66.3817C153.041 66.6577 153.197 66.8707 153.407 67.0207C153.617 67.1707 153.884 67.2457 154.208 67.2457C154.532 67.2457 154.799 67.1707 155.009 67.0207C155.219 66.8707 155.372 66.6577 155.468 66.3817C155.57 66.0997 155.621 65.7697 155.621 65.3917C155.621 65.0077 155.57 64.6807 155.468 64.4107C155.366 64.1407 155.21 63.9337 155 63.7897C154.796 63.6397 154.529 63.5647 154.199 63.5647C153.707 63.5647 153.35 63.7267 153.128 64.0507C152.906 64.3747 152.795 64.8217 152.795 65.3917ZM164.626 65.3917C164.626 65.7937 164.572 66.1507 164.464 66.4627C164.362 66.7687 164.212 67.0297 164.014 67.2457C163.822 67.4617 163.585 67.6267 163.303 67.7407C163.027 67.8487 162.718 67.9027 162.376 67.9027C162.058 67.9027 161.764 67.8487 161.494 67.7407C161.224 67.6267 160.99 67.4617 160.792 67.2457C160.594 67.0297 160.438 66.7687 160.324 66.4627C160.216 66.1507 160.162 65.7937 160.162 65.3917C160.162 64.8577 160.252 64.4077 160.432 64.0417C160.612 63.6697 160.87 63.3877 161.206 63.1957C161.542 62.9977 161.941 62.8987 162.403 62.8987C162.841 62.8987 163.225 62.9977 163.555 63.1957C163.891 63.3877 164.152 63.6697 164.338 64.0417C164.53 64.4077 164.626 64.8577 164.626 65.3917ZM160.981 65.3917C160.981 65.7697 161.029 66.0997 161.125 66.3817C161.227 66.6577 161.383 66.8707 161.593 67.0207C161.803 67.1707 162.07 67.2457 162.394 67.2457C162.718 67.2457 162.985 67.1707 163.195 67.0207C163.405 66.8707 163.558 66.6577 163.654 66.3817C163.756 66.0997 163.807 65.7697 163.807 65.3917C163.807 65.0077 163.756 64.6807 163.654 64.4107C163.552 64.1407 163.396 63.9337 163.186 63.7897C162.982 63.6397 162.715 63.5647 162.385 63.5647C161.893 63.5647 161.536 63.7267 161.314 64.0507C161.092 64.3747 160.981 64.8217 160.981 65.3917ZM165.9 64.9147C165.9 64.2127 165.969 63.6157 166.107 63.1237C166.251 62.6257 166.47 62.2297 166.764 61.9357C167.064 61.6357 167.448 61.4347 167.916 61.3327C168.306 61.2487 168.687 61.1737 169.059 61.1077C169.431 61.0417 169.779 60.9817 170.103 60.9277L170.238 61.6207C170.082 61.6447 169.908 61.6747 169.716 61.7107C169.524 61.7407 169.329 61.7737 169.131 61.8097C168.933 61.8397 168.741 61.8727 168.555 61.9087C168.375 61.9387 168.216 61.9687 168.078 61.9987C167.88 62.0407 167.703 62.1127 167.547 62.2147C167.391 62.3107 167.256 62.4427 167.142 62.6107C167.034 62.7787 166.947 62.9857 166.881 63.2317C166.815 63.4777 166.776 63.7687 166.764 64.1047H166.818C166.902 63.9907 167.016 63.8737 167.16 63.7537C167.31 63.6337 167.487 63.5317 167.691 63.4477C167.901 63.3637 168.138 63.3217 168.402 63.3217C168.822 63.3217 169.17 63.4147 169.446 63.6007C169.728 63.7807 169.938 64.0327 170.076 64.3567C170.22 64.6807 170.292 65.0587 170.292 65.4907C170.292 66.0247 170.199 66.4717 170.013 66.8317C169.827 67.1917 169.569 67.4617 169.239 67.6417C168.909 67.8157 168.525 67.9027 168.087 67.9027C167.757 67.9027 167.457 67.8397 167.187 67.7137C166.917 67.5817 166.686 67.3897 166.494 67.1377C166.302 66.8857 166.155 66.5737 166.053 66.2017C165.951 65.8297 165.9 65.4007 165.9 64.9147ZM168.15 67.2457C168.414 67.2457 168.642 67.1917 168.834 67.0837C169.032 66.9757 169.185 66.7987 169.293 66.5527C169.401 66.3067 169.455 65.9797 169.455 65.5717C169.455 65.0797 169.362 64.6927 169.176 64.4107C168.996 64.1227 168.696 63.9787 168.276 63.9787C168.012 63.9787 167.772 64.0387 167.556 64.1587C167.34 64.2727 167.16 64.4047 167.016 64.5547C166.872 64.7047 166.77 64.8307 166.71 64.9327C166.71 65.2267 166.731 65.5117 166.773 65.7877C166.815 66.0637 166.887 66.3127 166.989 66.5347C167.097 66.7507 167.244 66.9247 167.43 67.0567C167.622 67.1827 167.862 67.2457 168.15 67.2457ZM174.104 62.8987C174.698 62.8987 175.175 63.1057 175.535 63.5197C175.901 63.9337 176.084 64.5577 176.084 65.3917C176.084 65.9377 176 66.3997 175.832 66.7777C175.67 67.1497 175.439 67.4317 175.139 67.6237C174.845 67.8097 174.497 67.9027 174.095 67.9027C173.849 67.9027 173.63 67.8697 173.438 67.8037C173.246 67.7377 173.081 67.6537 172.943 67.5517C172.811 67.4437 172.697 67.3267 172.601 67.2007H172.547C172.559 67.3027 172.571 67.4317 172.583 67.5877C172.595 67.7437 172.601 67.8787 172.601 67.9927V69.9727H171.809V62.9887H172.457L172.565 63.6457H172.601C172.697 63.5077 172.811 63.3817 172.943 63.2677C173.081 63.1537 173.243 63.0637 173.429 62.9977C173.621 62.9317 173.846 62.8987 174.104 62.8987ZM173.96 63.5647C173.636 63.5647 173.375 63.6277 173.177 63.7537C172.979 63.8737 172.835 64.0567 172.745 64.3027C172.655 64.5487 172.607 64.8607 172.601 65.2387V65.3917C172.601 65.7877 172.643 66.1237 172.727 66.3997C172.811 66.6757 172.952 66.8857 173.15 67.0297C173.354 67.1737 173.63 67.2457 173.978 67.2457C174.272 67.2457 174.512 67.1647 174.698 67.0027C174.89 66.8407 175.031 66.6217 175.121 66.3457C175.217 66.0637 175.265 65.7427 175.265 65.3827C175.265 64.8307 175.157 64.3897 174.941 64.0597C174.731 63.7297 174.404 63.5647 173.96 63.5647ZM179.443 62.9077C180.031 62.9077 180.466 63.0367 180.748 63.2947C181.03 63.5527 181.171 63.9637 181.171 64.5277V67.8127H180.595L180.442 67.1287H180.406C180.268 67.3027 180.124 67.4497 179.974 67.5697C179.83 67.6837 179.662 67.7677 179.47 67.8217C179.284 67.8757 179.056 67.9027 178.786 67.9027C178.498 67.9027 178.237 67.8517 178.003 67.7497C177.775 67.6477 177.595 67.4917 177.463 67.2817C177.331 67.0657 177.265 66.7957 177.265 66.4717C177.265 65.9917 177.454 65.6227 177.832 65.3647C178.21 65.1007 178.792 64.9567 179.578 64.9327L180.397 64.9057V64.6177C180.397 64.2157 180.31 63.9367 180.136 63.7807C179.962 63.6247 179.716 63.5467 179.398 63.5467C179.146 63.5467 178.906 63.5857 178.678 63.6637C178.45 63.7357 178.237 63.8197 178.039 63.9157L177.796 63.3217C178.006 63.2077 178.255 63.1117 178.543 63.0337C178.831 62.9497 179.131 62.9077 179.443 62.9077ZM179.677 65.4817C179.077 65.5057 178.66 65.6017 178.426 65.7697C178.198 65.9377 178.084 66.1747 178.084 66.4807C178.084 66.7507 178.165 66.9487 178.327 67.0747C178.495 67.2007 178.708 67.2637 178.966 67.2637C179.374 67.2637 179.713 67.1527 179.983 66.9307C180.253 66.7027 180.388 66.3547 180.388 65.8867V65.4547L179.677 65.4817ZM184.2 62.8987C184.566 62.8987 184.884 62.9497 185.154 63.0517C185.424 63.1477 185.634 63.2917 185.784 63.4837C185.934 63.6697 186.009 63.8977 186.009 64.1677C186.009 64.4617 185.928 64.6957 185.766 64.8697C185.604 65.0377 185.382 65.1607 185.1 65.2387V65.2747C185.292 65.3287 185.469 65.4037 185.631 65.4997C185.793 65.5957 185.922 65.7217 186.018 65.8777C186.12 66.0337 186.171 66.2347 186.171 66.4807C186.171 66.7447 186.096 66.9847 185.946 67.2007C185.802 67.4167 185.577 67.5877 185.271 67.7137C184.971 67.8397 184.584 67.9027 184.11 67.9027C183.882 67.9027 183.663 67.8907 183.453 67.8667C183.249 67.8427 183.063 67.8067 182.895 67.7587C182.733 67.7107 182.589 67.6537 182.463 67.5877V66.8767C182.667 66.9727 182.907 67.0597 183.183 67.1377C183.465 67.2157 183.771 67.2547 184.101 67.2547C184.341 67.2547 184.557 67.2277 184.749 67.1737C184.947 67.1197 185.103 67.0357 185.217 66.9217C185.331 66.8017 185.388 66.6397 185.388 66.4357C185.388 66.2497 185.337 66.0997 185.235 65.9857C185.133 65.8657 184.98 65.7757 184.776 65.7157C184.578 65.6557 184.323 65.6257 184.011 65.6257H183.363V64.9777H183.885C184.299 64.9777 184.629 64.9237 184.875 64.8157C185.127 64.7017 185.253 64.5097 185.253 64.2397C185.253 64.0117 185.157 63.8407 184.965 63.7267C184.779 63.6127 184.509 63.5557 184.155 63.5557C183.891 63.5557 183.657 63.5827 183.453 63.6367C183.255 63.6847 183.036 63.7597 182.796 63.8617L182.517 63.2317C182.775 63.1177 183.045 63.0337 183.327 62.9797C183.609 62.9257 183.9 62.8987 184.2 62.8987ZM191.807 65.3917C191.807 65.7937 191.753 66.1507 191.645 66.4627C191.543 66.7687 191.393 67.0297 191.195 67.2457C191.003 67.4617 190.766 67.6267 190.484 67.7407C190.208 67.8487 189.899 67.9027 189.557 67.9027C189.239 67.9027 188.945 67.8487 188.675 67.7407C188.405 67.6267 188.171 67.4617 187.973 67.2457C187.775 67.0297 187.619 66.7687 187.505 66.4627C187.397 66.1507 187.343 65.7937 187.343 65.3917C187.343 64.8577 187.433 64.4077 187.613 64.0417C187.793 63.6697 188.051 63.3877 188.387 63.1957C188.723 62.9977 189.122 62.8987 189.584 62.8987C190.022 62.8987 190.406 62.9977 190.736 63.1957C191.072 63.3877 191.333 63.6697 191.519 64.0417C191.711 64.4077 191.807 64.8577 191.807 65.3917ZM188.162 65.3917C188.162 65.7697 188.21 66.0997 188.306 66.3817C188.408 66.6577 188.564 66.8707 188.774 67.0207C188.984 67.1707 189.251 67.2457 189.575 67.2457C189.899 67.2457 190.166 67.1707 190.376 67.0207C190.586 66.8707 190.739 66.6577 190.835 66.3817C190.937 66.0997 190.988 65.7697 190.988 65.3917C190.988 65.0077 190.937 64.6807 190.835 64.4107C190.733 64.1407 190.577 63.9337 190.367 63.7897C190.163 63.6397 189.896 63.5647 189.566 63.5647C189.074 63.5647 188.717 63.7267 188.495 64.0507C188.273 64.3747 188.162 64.8217 188.162 65.3917ZM197.212 64.2037C197.212 64.5037 197.122 64.7377 196.942 64.9057C196.762 65.0737 196.531 65.1877 196.249 65.2477V65.2837C196.549 65.3257 196.81 65.4337 197.032 65.6077C197.254 65.7757 197.365 66.0397 197.365 66.3997C197.365 66.6037 197.326 66.7927 197.248 66.9667C197.176 67.1407 197.062 67.2907 196.906 67.4167C196.75 67.5427 196.549 67.6417 196.303 67.7137C196.057 67.7797 195.76 67.8127 195.412 67.8127H193.333V62.9887H195.403C195.745 62.9887 196.051 63.0277 196.321 63.1057C196.597 63.1777 196.813 63.3037 196.969 63.4837C197.131 63.6577 197.212 63.8977 197.212 64.2037ZM196.546 66.3997C196.546 66.1237 196.441 65.9257 196.231 65.8057C196.021 65.6857 195.712 65.6257 195.304 65.6257H194.125V67.1737H195.322C195.718 67.1737 196.021 67.1167 196.231 67.0027C196.441 66.8827 196.546 66.6817 196.546 66.3997ZM196.411 64.3027C196.411 64.0747 196.327 63.9097 196.159 63.8077C195.997 63.6997 195.73 63.6457 195.358 63.6457H194.125V64.9687H195.214C195.604 64.9687 195.901 64.9147 196.105 64.8067C196.309 64.6987 196.411 64.5307 196.411 64.3027ZM200.615 62.9077C201.203 62.9077 201.638 63.0367 201.92 63.2947C202.202 63.5527 202.343 63.9637 202.343 64.5277V67.8127H201.767L201.614 67.1287H201.578C201.44 67.3027 201.296 67.4497 201.146 67.5697C201.002 67.6837 200.834 67.7677 200.642 67.8217C200.456 67.8757 200.228 67.9027 199.958 67.9027C199.67 67.9027 199.409 67.8517 199.175 67.7497C198.947 67.6477 198.767 67.4917 198.635 67.2817C198.503 67.0657 198.437 66.7957 198.437 66.4717C198.437 65.9917 198.626 65.6227 199.004 65.3647C199.382 65.1007 199.964 64.9567 200.75 64.9327L201.569 64.9057V64.6177C201.569 64.2157 201.482 63.9367 201.308 63.7807C201.134 63.6247 200.888 63.5467 200.57 63.5467C200.318 63.5467 200.078 63.5857 199.85 63.6637C199.622 63.7357 199.409 63.8197 199.211 63.9157L198.968 63.3217C199.178 63.2077 199.427 63.1117 199.715 63.0337C200.003 62.9497 200.303 62.9077 200.615 62.9077ZM200.849 65.4817C200.249 65.5057 199.832 65.6017 199.598 65.7697C199.37 65.9377 199.256 66.1747 199.256 66.4807C199.256 66.7507 199.337 66.9487 199.499 67.0747C199.667 67.2007 199.88 67.2637 200.138 67.2637C200.546 67.2637 200.885 67.1527 201.155 66.9307C201.425 66.7027 201.56 66.3547 201.56 65.8867V65.4547L200.849 65.4817ZM204.895 62.9887V64.9957H207.514V62.9887H208.306V67.8127H207.514V65.6617H204.895V67.8127H204.103V62.9887H204.895ZM210.851 65.9317C210.851 65.9857 210.848 66.0637 210.842 66.1657C210.842 66.2617 210.839 66.3667 210.833 66.4807C210.827 66.5887 210.821 66.6937 210.815 66.7957C210.809 66.8917 210.803 66.9697 210.797 67.0297L213.38 62.9887H214.352V67.8127H213.614V64.9687C213.614 64.8727 213.614 64.7467 213.614 64.5907C213.62 64.4347 213.626 64.2817 213.632 64.1317C213.638 63.9757 213.644 63.8587 213.65 63.7807L211.085 67.8127H210.104V62.9887H210.851V65.9317ZM216.454 67.8127H215.536L216.913 65.7877C216.727 65.7397 216.547 65.6647 216.373 65.5627C216.199 65.4547 216.058 65.3077 215.95 65.1217C215.842 64.9297 215.788 64.6927 215.788 64.4107C215.788 63.9487 215.944 63.5977 216.256 63.3577C216.568 63.1117 216.982 62.9887 217.498 62.9887H219.658V67.8127H218.866V65.8957H217.696L216.454 67.8127ZM216.553 64.4197C216.553 64.6957 216.655 64.9027 216.859 65.0407C217.069 65.1727 217.36 65.2387 217.732 65.2387H218.866V63.6457H217.579C217.213 63.6457 216.949 63.7177 216.787 63.8617C216.631 64.0057 216.553 64.1917 216.553 64.4197Z" fill="url(#paint2_linear_0_12)"/>
<defs>
<filter id="filter0_di_0_12" x="198" y="0.1875" width="62" height="62" filterUnits="userSpaceOnUse" color-interpolation-filters="sRGB">
<feFlood flood-opacity="0" result="BackgroundImageFix"/>
<feColorMatrix in="SourceAlpha" type="matrix" values="0 0 0 0 0 0 0 0 0 0 0 0 0 0 0 0 0 0 127 0" result="hardAlpha"/>
<feOffset dy="4"/>
<feGaussianBlur stdDeviation="9.5"/>
<feComposite in2="hardAlpha" operator="out"/>
<feColorMatrix type="matrix" values="0 0 0 0 0.0862745 0 0 0 0 0.470588 0 0 0 0 0.94902 0 0 0 0.2 0"/>
<feBlend mode="normal" in2="BackgroundImageFix" result="effect1_dropShadow_0_12"/>
<feBlend mode="normal" in="SourceGraphic" in2="effect1_dropShadow_0_12" result="shape"/>
<feColorMatrix in="SourceAlpha" type="matrix" values="0 0 0 0 0 0 0 0 0 0 0 0 0 0 0 0 0 0 127 0" result="hardAlpha"/>
<feOffset dy="4"/>
<feGaussianBlur stdDeviation="2"/>
<feComposite in2="hardAlpha" operator="arithmetic" k2="-1" k3="1"/>
<feColorMatrix type="matrix" values="0 0 0 0 0 0 0 0 0 0 0 0 0 0 0 0 0 0 0.12 0"/>
<feBlend mode="normal" in2="shape" result="effect2_innerShadow_0_12"/>
</filter>
<linearGradient id="paint0_linear_0_12" x1="215.132" y1="5.77573" x2="269.678" y2="11.6443" gradientUnits="userSpaceOnUse">
<stop stop-color="#3A8EF6"/>
<stop offset="1" stop-color="#6F3AFA"/>
</linearGradient>
<linearGradient id="paint1_linear_0_12" x1="-17.1257" y1="5.50122" x2="357.497" y2="227.18" gradientUnits="userSpaceOnUse">
<stop stop-color="#3A8EF6"/>
<stop offset="1" stop-color="#6F3AFA"/>
</linearGradient>
<linearGradient id="paint2_linear_0_12" x1="-19.0719" y1="54.499" x2="64.4723" y2="254.696" gradientUnits="userSpaceOnUse">
<stop stop-color="#3A8EF6"/>
<stop offset="1" stop-color="#6F3AFA"/>
</linearGradient>
</defs>
</svg>
