<svg width="80" height="16" viewBox="0 0 80 16" fill="none" xmlns="http://www.w3.org/2000/svg">
<path d="M14.3135 6.0992L10.2146 5.47216L8.37738 1.55299C8.24016 1.26033 7.76072 1.26033 7.6235 1.55299L5.78683 5.47216L1.68796 6.0992C1.35129 6.15095 1.21685 6.561 1.45296 6.80303L4.43073 9.8598L3.72684 14.1812C3.67073 14.5245 4.03684 14.7821 4.33962 14.6135L8.00072 12.5872L11.6618 14.6141C11.9618 14.781 12.3313 14.5284 12.2746 14.1818L11.5707 9.86036L14.5485 6.80359C14.7846 6.561 14.6496 6.15095 14.3135 6.0992Z" fill="#FFC107"/>
<path d="M30.3135 6.0992L26.2146 5.47216L24.3774 1.55299C24.2402 1.26033 23.7607 1.26033 23.6235 1.55299L21.7868 5.47216L17.688 6.0992C17.3513 6.15095 17.2168 6.561 17.453 6.80303L20.4307 9.8598L19.7268 14.1812C19.6707 14.5245 20.0368 14.7821 20.3396 14.6135L24.0007 12.5872L27.6618 14.6141C27.9618 14.781 28.3313 14.5284 28.2746 14.1818L27.5707 9.86036L30.5485 6.80359C30.7846 6.561 30.6496 6.15095 30.3135 6.0992Z" fill="#FFC107"/>
<path d="M46.3135 6.0992L42.2146 5.47216L40.3774 1.55299C40.2402 1.26033 39.7607 1.26033 39.6235 1.55299L37.7868 5.47216L33.688 6.0992C33.3513 6.15095 33.2168 6.561 33.453 6.80303L36.4307 9.8598L35.7268 14.1812C35.6707 14.5245 36.0368 14.7821 36.3396 14.6135L40.0007 12.5872L43.6618 14.6141C43.9618 14.781 44.3313 14.5284 44.2746 14.1818L43.5707 9.86036L46.5485 6.80359C46.7846 6.561 46.6496 6.15095 46.3135 6.0992Z" fill="#FFC107"/>
<path d="M62.3135 6.0992L58.2146 5.47216L56.3774 1.55299C56.2402 1.26033 55.7607 1.26033 55.6235 1.55299L53.7868 5.47216L49.688 6.0992C49.3513 6.15095 49.2168 6.561 49.453 6.80303L52.4307 9.8598L51.7268 14.1812C51.6707 14.5245 52.0368 14.7821 52.3396 14.6135L56.0007 12.5872L59.6618 14.6141C59.9618 14.781 60.3313 14.5284 60.2746 14.1818L59.5707 9.86036L62.5485 6.80359C62.7846 6.561 62.6496 6.15095 62.3135 6.0992Z" fill="#FFC107"/>
<path d="M78.3135 6.0992L74.2146 5.47216L72.3774 1.55299C72.2402 1.26033 71.7607 1.26033 71.6235 1.55299L69.7868 5.47216L65.688 6.0992C65.3513 6.15095 65.2168 6.561 65.453 6.80303L68.4307 9.8598L67.7268 14.1812C67.6707 14.5245 68.0368 14.7821 68.3396 14.6135L72.0007 12.5872L75.6618 14.6141C75.9618 14.781 76.3313 14.5284 76.2746 14.1818L75.5707 9.86036L78.5485 6.80359C78.7846 6.561 78.6496 6.15095 78.3135 6.0992Z" fill="#FFC107"/>
</svg>
