<svg width="32" height="33" viewBox="0 0 32 33" fill="none" xmlns="http://www.w3.org/2000/svg">
<path d="M18.6667 25.3377H13.3334C10.5044 25.3377 7.79127 24.2139 5.79088 22.2135C3.79049 20.2131 2.66669 17.5 2.66669 14.6711V8.00439H8.00002V14.6711C8.00002 16.0855 8.56192 17.4421 9.56212 18.4423C10.5623 19.4425 11.9189 20.0044 13.3334 20.0044V8.00439H18.6667V14.0044L18.7067 13.9991C20.168 13.8167 21.5125 13.1069 22.4872 12.003C23.462 10.899 24 9.47708 24 8.00439H29.3334L28.8774 10.2857C28.6042 11.6512 28.0229 12.9362 27.1776 14.0428C26.3324 15.1494 25.2455 16.0484 24 16.6711V16.6711C25.2111 17.0746 26.2915 17.7963 27.128 18.7606C27.9645 19.7249 28.5263 20.8964 28.7547 22.1524L29.3334 25.3377H24C24 23.865 23.462 22.4431 22.4872 21.3392C21.5125 20.2352 20.168 19.5254 18.7067 19.3431V25.3431L18.6667 25.3377Z" stroke="white" stroke-width="2" stroke-linecap="round" stroke-linejoin="round"/>
</svg>
