<svg width="61" height="58" viewBox="0 0 61 58" fill="none" xmlns="http://www.w3.org/2000/svg">
<path d="M36.5833 12.2499V6.16659H24.4167V12.2499H36.5833ZM6.16668 18.3333V51.7916H54.8333V18.3333H6.16668ZM54.8333 12.2499C58.2096 12.2499 60.9167 14.957 60.9167 18.3333V51.7916C60.9167 55.1678 58.2096 57.8749 54.8333 57.8749H6.16668C2.79043 57.8749 0.0833435 55.1678 0.0833435 51.7916L0.11376 18.3333C0.11376 14.957 2.79043 12.2499 6.16668 12.2499H18.3333V6.16659C18.3333 2.79034 21.0404 0.083252 24.4167 0.083252H36.5833C39.9596 0.083252 42.6667 2.79034 42.6667 6.16659V12.2499H54.8333Z" fill="#437FF6"/>
</svg>
