<svg width="50" height="62" viewBox="0 0 50 62" fill="none" xmlns="http://www.w3.org/2000/svg">
<path d="M15.0833 39.5001H34.9167M15.0833 48.0001H25M44.8333 2.66675H5.16667C4.41522 2.66675 3.69455 2.96526 3.1632 3.49661C2.63185 4.02796 2.33334 4.74863 2.33334 5.50008V56.5001C2.33334 57.2515 2.63185 57.9722 3.1632 58.5035C3.69455 59.0349 4.41522 59.3334 5.16667 59.3334H44.8333C45.5848 59.3334 46.3055 59.0349 46.8368 58.5035C47.3682 57.9722 47.6667 57.2515 47.6667 56.5001V5.50008C47.6667 4.74863 47.3682 4.02796 46.8368 3.49661C46.3055 2.96526 45.5848 2.66675 44.8333 2.66675V2.66675Z" stroke="#437FF6" stroke-width="4" stroke-linecap="round" stroke-linejoin="round"/>
<path d="M33.5 15.4167L22.1667 26.7501L16.5 21.0834" stroke="#437FF6" stroke-width="4" stroke-linecap="round" stroke-linejoin="round"/>
</svg>
