<svg width="50" height="62" viewBox="0 0 50 62" fill="none" xmlns="http://www.w3.org/2000/svg">
<path d="M47.6667 35.2501V5.50008C47.6667 4.74863 47.3682 4.02796 46.8368 3.49661C46.3055 2.96526 45.5848 2.66675 44.8334 2.66675H5.16668C4.41523 2.66675 3.69456 2.96526 3.16321 3.49661C2.63186 4.02796 2.33334 4.74863 2.33334 5.50008V56.5001C2.33334 57.2515 2.63186 57.9722 3.16321 58.5035C3.69456 59.0349 4.41523 59.3334 5.16668 59.3334H20.75M15.0833 14.0001H34.9167M15.0833 25.3334H34.9167M15.0833 36.6667H23.5834" stroke="#437FF6" stroke-width="4" stroke-linecap="round" stroke-linejoin="round"/>
<path d="M46.25 59.3335L41.3413 54.4247M41.3413 54.4247C42.0127 53.7701 42.5474 52.9886 42.9144 52.1256C43.2814 51.2627 43.4734 50.3355 43.4793 49.3977C43.4852 48.46 43.3048 47.5304 42.9486 46.663C42.5924 45.7955 42.0676 45.0074 41.4044 44.3443C40.7413 43.6813 39.9531 43.1565 39.0856 42.8005C38.2181 42.4444 37.2885 42.2642 36.3507 42.2702C35.413 42.2762 34.4858 42.4683 33.6229 42.8355C32.76 43.2026 31.9786 43.7374 31.324 44.4089C30.0054 45.7395 29.2676 47.5382 29.272 49.4114C29.2763 51.2846 30.0225 53.0799 31.3473 54.4043C32.6721 55.7287 34.4675 56.4744 36.3408 56.4782C38.214 56.4821 40.0125 55.7437 41.3427 54.4247H41.3413Z" stroke="#437FF6" stroke-width="4" stroke-linecap="round" stroke-linejoin="round"/>
</svg>
