<svg width="16" height="14" viewBox="0 0 16 14" fill="none" xmlns="http://www.w3.org/2000/svg">
<path d="M5.55 13.8787C5.41667 13.8787 5.29167 13.854 5.175 13.8046C5.05833 13.756 4.95 13.6729 4.85 13.5553L0.550001 8.49732C0.366667 8.28167 0.279001 8.00211 0.287001 7.65864C0.295667 7.31595 0.391667 7.03678 0.575 6.82114C0.758334 6.60549 0.991667 6.49766 1.275 6.49766C1.55833 6.49766 1.79167 6.60549 1.975 6.82114L5.55 11.0263L14.025 1.05742C14.2083 0.841772 14.446 0.733948 14.738 0.733948C15.0293 0.733948 15.2667 0.841772 15.45 1.05742C15.6333 1.27307 15.725 1.55224 15.725 1.89492C15.725 2.23839 15.6333 2.51795 15.45 2.7336L6.25 13.5553C6.15 13.6729 6.04167 13.756 5.925 13.8046C5.80833 13.854 5.68333 13.8787 5.55 13.8787Z" fill="#506AF7"/>
</svg>
