<svg width="17" height="19" viewBox="0 0 17 19" fill="none" xmlns="http://www.w3.org/2000/svg">
<g clip-path="url(#clip0_0_106)">
<path d="M15.4375 17.8125H14.25V16.0312C14.2491 15.2442 13.936 14.4896 13.3794 13.9331C12.8229 13.3765 12.0683 13.0634 11.2812 13.0625H7.71875C6.93168 13.0634 6.17711 13.3765 5.62057 13.9331C5.06402 14.4896 4.75094 15.2442 4.75 16.0312V17.8125H3.5625V16.0312C3.56376 14.9293 4.00205 13.8729 4.78123 13.0937C5.5604 12.3146 6.61683 11.8763 7.71875 11.875H11.2812C12.3832 11.8763 13.4396 12.3146 14.2188 13.0937C14.9979 13.8729 15.4362 14.9293 15.4375 16.0312V17.8125ZM2.96875 3.5625C2.81128 3.5625 2.66026 3.62506 2.54891 3.73641C2.43756 3.84776 2.375 3.99878 2.375 4.15625V9.5H3.5625V4.15625C3.5625 3.99878 3.49994 3.84776 3.38859 3.73641C3.27724 3.62506 3.12622 3.5625 2.96875 3.5625Z" fill="white"/>
<path d="M2.375 1.1875V2.375H5.34375V6.53125C5.34375 7.63356 5.78164 8.69071 6.56109 9.47016C7.34054 10.2496 8.39769 10.6875 9.5 10.6875C10.6023 10.6875 11.6595 10.2496 12.4389 9.47016C13.2184 8.69071 13.6562 7.63356 13.6562 6.53125V2.375H16.625V1.1875H2.375ZM6.53125 2.375H12.4688V4.15625H6.53125V2.375ZM9.5 9.5C8.71264 9.5 7.95753 9.18722 7.40078 8.63047C6.84403 8.07372 6.53125 7.31861 6.53125 6.53125V5.34375H12.4688V6.53125C12.4688 7.31861 12.156 8.07372 11.5992 8.63047C11.0425 9.18722 10.2874 9.5 9.5 9.5Z" fill="white"/>
</g>
<defs>
<clipPath id="clip0_0_106">
<rect width="17" height="19" fill="white"/>
</clipPath>
</defs>
</svg>
