<svg width="14" height="14" viewBox="0 0 14 14" fill="none" xmlns="http://www.w3.org/2000/svg">
<path d="M6.125 7.25812L4.99187 6.125L4.375 6.74187L6.125 8.49187L9.625 4.99187L9.00813 4.375L6.125 7.25812Z" fill="white"/>
<path d="M7 13.125L4.298 11.6843C3.52771 11.2745 2.88355 10.6627 2.43466 9.9145C1.98576 9.16632 1.74908 8.31002 1.75 7.4375V1.75C1.75023 1.51801 1.8425 1.29558 2.00654 1.13154C2.17058 0.967493 2.39301 0.875232 2.625 0.875H11.375C11.607 0.875232 11.8294 0.967493 11.9935 1.13154C12.1575 1.29558 12.2498 1.51801 12.25 1.75V7.4375C12.2509 8.31002 12.0142 9.16632 11.5654 9.9145C11.1165 10.6627 10.4723 11.2745 9.702 11.6843L7 13.125ZM2.625 1.75V7.4375C2.62428 8.15141 2.81799 8.85205 3.18534 9.4642C3.55269 10.0763 4.07981 10.5769 4.71013 10.9121L7 12.1332L9.28988 10.9126C9.92026 10.5773 10.4474 10.0767 10.8148 9.46445C11.1821 8.85221 11.3758 8.15149 11.375 7.4375V1.75H2.625Z" fill="white"/>
</svg>
