<svg width="62" height="63" viewBox="0 0 62 63" fill="none" xmlns="http://www.w3.org/2000/svg">
<g filter="url(#filter0_di_403_43)">
<circle cx="31" cy="27.1875" r="12" fill="url(#paint0_linear_403_43)"/>
</g>
<path d="M30.125 28.4456L28.9919 27.3125L28.375 27.9294L30.125 29.6794L33.625 26.1794L33.0081 25.5625L30.125 28.4456Z" fill="white"/>
<path d="M31 34.3125L28.298 32.8718C27.5277 32.462 26.8836 31.8502 26.4347 31.102C25.9858 30.3538 25.7491 29.4975 25.75 28.625V22.9375C25.7502 22.7055 25.8425 22.4831 26.0065 22.319C26.1706 22.155 26.393 22.0627 26.625 22.0625H35.375C35.607 22.0627 35.8294 22.155 35.9935 22.319C36.1575 22.4831 36.2498 22.7055 36.25 22.9375V28.625C36.2509 29.4975 36.0142 30.3538 35.5654 31.102C35.1165 31.8502 34.4723 32.462 33.702 32.8718L31 34.3125ZM26.625 22.9375V28.625C26.6243 29.3389 26.818 30.0395 27.1853 30.6517C27.5527 31.2638 28.0798 31.7644 28.7101 32.0996L31 33.3207L33.2899 32.1001C33.9203 31.7648 34.4474 31.2642 34.8148 30.6519C35.1821 30.0397 35.3758 29.339 35.375 28.625V22.9375H26.625Z" fill="white"/>
<defs>
<filter id="filter0_di_403_43" x="0" y="0.1875" width="62" height="62" filterUnits="userSpaceOnUse" color-interpolation-filters="sRGB">
<feFlood flood-opacity="0" result="BackgroundImageFix"/>
<feColorMatrix in="SourceAlpha" type="matrix" values="0 0 0 0 0 0 0 0 0 0 0 0 0 0 0 0 0 0 127 0" result="hardAlpha"/>
<feOffset dy="4"/>
<feGaussianBlur stdDeviation="9.5"/>
<feComposite in2="hardAlpha" operator="out"/>
<feColorMatrix type="matrix" values="0 0 0 0 0.0862745 0 0 0 0 0.470588 0 0 0 0 0.94902 0 0 0 0.2 0"/>
<feBlend mode="normal" in2="BackgroundImageFix" result="effect1_dropShadow_403_43"/>
<feBlend mode="normal" in="SourceGraphic" in2="effect1_dropShadow_403_43" result="shape"/>
<feColorMatrix in="SourceAlpha" type="matrix" values="0 0 0 0 0 0 0 0 0 0 0 0 0 0 0 0 0 0 127 0" result="hardAlpha"/>
<feOffset dy="4"/>
<feGaussianBlur stdDeviation="2"/>
<feComposite in2="hardAlpha" operator="arithmetic" k2="-1" k3="1"/>
<feColorMatrix type="matrix" values="0 0 0 0 0 0 0 0 0 0 0 0 0 0 0 0 0 0 0.12 0"/>
<feBlend mode="normal" in2="shape" result="effect2_innerShadow_403_43"/>
</filter>
<linearGradient id="paint0_linear_403_43" x1="17.1317" y1="5.77573" x2="71.6783" y2="11.6443" gradientUnits="userSpaceOnUse">
<stop stop-color="#3A8EF6"/>
<stop offset="1" stop-color="#6F3AFA"/>
</linearGradient>
</defs>
</svg>
