<svg width="14" height="14" viewBox="0 0 14 14" fill="none" xmlns="http://www.w3.org/2000/svg">
<g clip-path="url(#clip0_1_33)">
<path d="M2.79999 6.10238e-06C2.43207 -0.000762797 2.06763 0.0711365 1.72757 0.211577C1.38751 0.352018 1.07853 0.558235 0.818377 0.818392C0.55822 1.07855 0.352003 1.38752 0.211562 1.72758C0.0711213 2.06764 -0.000778056 2.43209 -9.15641e-06 2.80001V11.2C-9.15641e-06 12.7517 1.24832 14 2.79999 14H11.2C12.7517 14 14 12.7517 14 11.2V2.80001C14 1.24834 12.7517 6.10238e-06 11.2 6.10238e-06H2.79999ZM6.99999 2.01192V2.01251C9.47449 2.01251 11.5692 3.12317 11.5692 5.61167C11.5692 7.32201 9.31757 10.1704 7.97357 11.5407C7.39607 12.1287 6.62024 12.145 6.02641 11.5407C4.68299 10.1704 2.43074 7.32201 2.43074 5.61167C2.43074 3.18384 4.45841 2.01192 6.99999 2.01192V2.01192ZM9.06499 3.26901L6.11916 6.16234L9.06499 9.05334C9.16747 8.95335 9.24891 8.83387 9.30451 8.70193C9.36012 8.56999 9.38877 8.42827 9.38877 8.28509C9.38877 8.14191 9.36012 8.00018 9.30451 7.86824C9.24891 7.73631 9.16747 7.61683 9.06499 7.51684V7.51626L7.68482 6.16117L9.06499 4.80609C9.16756 4.70609 9.24908 4.58658 9.30473 4.45458C9.36039 4.32259 9.38906 4.18079 9.38906 4.03755C9.38906 3.8943 9.36039 3.7525 9.30473 3.62051C9.24908 3.48852 9.16756 3.369 9.06499 3.26901ZM4.77807 3.35301V9.05334C4.92056 9.05395 5.06177 9.0265 5.19364 8.97254C5.32551 8.91858 5.44547 8.83917 5.54665 8.73885C5.64784 8.63853 5.72827 8.51927 5.78337 8.38786C5.83846 8.25646 5.86713 8.11549 5.86774 7.97301V4.43451C5.86728 4.29202 5.83876 4.15102 5.78381 4.01956C5.72886 3.8881 5.64855 3.76875 5.54748 3.66832C5.4464 3.56789 5.32653 3.48836 5.19472 3.43426C5.0629 3.38015 4.92172 3.35255 4.77924 3.35301H4.77807V3.35301Z" fill="white"/>
</g>
<defs>
<clipPath id="clip0_1_33">
<rect width="14" height="14" fill="white"/>
</clipPath>
</defs>
</svg>
