<svg width="17" height="18" viewBox="0 0 17 18" fill="none" xmlns="http://www.w3.org/2000/svg">
<path fill-rule="evenodd" clip-rule="evenodd" d="M8.3913 17.3337C4.0713 17.3337 0.565216 13.6087 0.565216 9.00033C0.565216 4.40033 4.0713 0.666992 8.3913 0.666992C12.7191 0.666992 16.2174 4.40033 16.2174 9.00033C16.2174 13.6087 12.7191 17.3337 8.3913 17.3337ZM10.8878 12.092C10.9817 12.1503 11.0835 12.1836 11.193 12.1836C11.3887 12.1836 11.5843 12.0753 11.6939 11.8753C11.8583 11.5836 11.7722 11.2003 11.4904 11.017L8.70435 9.2503V5.4003C8.70435 5.0503 8.43826 4.7753 8.11739 4.7753C7.79652 4.7753 7.53043 5.0503 7.53043 5.4003V9.60863C7.53043 9.8253 7.64 10.0253 7.82 10.142L10.8878 12.092Z" fill="#F77E53"/>
</svg>
